<mxfile host="app.diagrams.net" modified="2024-04-08T01:52:19.663Z" agent="Mozilla/5.0 (Windows NT 10.0; Win64; x64) AppleWebKit/537.36 (KHTML, like Gecko) Chrome/123.0.0.0 Safari/537.36" etag="J3PUcuFGDHWsg8Y0qkwh" version="24.2.0" type="github">
  <diagram name="Page-1" id="CZzTDwqSZ-0lHYkCDl8A">
    <mxGraphModel dx="880" dy="468" grid="1" gridSize="10" guides="1" tooltips="1" connect="1" arrows="1" fold="1" page="1" pageScale="1" pageWidth="827" pageHeight="1169" math="0" shadow="0">
      <root>
        <mxCell id="0" />
        <mxCell id="1" parent="0" />
        <mxCell id="ZH2Nq26VHnjN1LacW9c--1" value="" style="shape=cylinder3;whiteSpace=wrap;html=1;boundedLbl=1;backgroundOutline=1;size=15;" vertex="1" parent="1">
          <mxGeometry x="280" y="40" width="60" height="80" as="geometry" />
        </mxCell>
        <mxCell id="ZH2Nq26VHnjN1LacW9c--2" value="" style="shape=cylinder3;whiteSpace=wrap;html=1;boundedLbl=1;backgroundOutline=1;size=15;" vertex="1" parent="1">
          <mxGeometry x="550" y="40" width="60" height="80" as="geometry" />
        </mxCell>
        <mxCell id="ZH2Nq26VHnjN1LacW9c--3" value="Nutrition Dataset" style="text;html=1;align=center;verticalAlign=middle;whiteSpace=wrap;rounded=0;" vertex="1" parent="1">
          <mxGeometry x="280" y="80" width="60" height="30" as="geometry" />
        </mxCell>
        <mxCell id="ZH2Nq26VHnjN1LacW9c--4" value="Expert dataset" style="text;html=1;align=center;verticalAlign=middle;whiteSpace=wrap;rounded=0;" vertex="1" parent="1">
          <mxGeometry x="550" y="80" width="60" height="30" as="geometry" />
        </mxCell>
        <mxCell id="ZH2Nq26VHnjN1LacW9c--5" value="" style="endArrow=none;html=1;rounded=0;" edge="1" parent="1">
          <mxGeometry width="50" height="50" relative="1" as="geometry">
            <mxPoint x="310" y="200" as="sourcePoint" />
            <mxPoint x="309.5" y="120" as="targetPoint" />
          </mxGeometry>
        </mxCell>
        <mxCell id="ZH2Nq26VHnjN1LacW9c--6" value="" style="endArrow=none;html=1;rounded=0;" edge="1" parent="1">
          <mxGeometry width="50" height="50" relative="1" as="geometry">
            <mxPoint x="580" y="200" as="sourcePoint" />
            <mxPoint x="579.5" y="120" as="targetPoint" />
          </mxGeometry>
        </mxCell>
        <mxCell id="ZH2Nq26VHnjN1LacW9c--7" value="" style="endArrow=none;html=1;rounded=0;" edge="1" parent="1">
          <mxGeometry width="50" height="50" relative="1" as="geometry">
            <mxPoint x="310" y="200" as="sourcePoint" />
            <mxPoint x="400" y="200" as="targetPoint" />
          </mxGeometry>
        </mxCell>
        <mxCell id="ZH2Nq26VHnjN1LacW9c--8" value="" style="endArrow=none;html=1;rounded=0;" edge="1" parent="1">
          <mxGeometry width="50" height="50" relative="1" as="geometry">
            <mxPoint x="490" y="200" as="sourcePoint" />
            <mxPoint x="580" y="200" as="targetPoint" />
          </mxGeometry>
        </mxCell>
      </root>
    </mxGraphModel>
  </diagram>
</mxfile>
